<svg id="sun-svgrepo-com" xmlns="http://www.w3.org/2000/svg" width="512" height="512" viewBox="0 0 512 512">
  <g id="Groupe_2" data-name="Groupe 2">
    <g id="Groupe_1" data-name="Groupe 1">
      <path id="Tracé_1" data-name="Tracé 1" d="M256,95.44a160.978,160.978,0,0,0-73.915,18,7.935,7.935,0,1,0,7.316,14.084A143.065,143.065,0,0,1,256,111.311c79.782,0,144.69,64.908,144.69,144.69A145.307,145.307,0,0,1,341.4,372.8a7.935,7.935,0,1,0,9.378,12.8A160.331,160.331,0,0,0,416.562,256C416.56,167.467,344.534,95.44,256,95.44Z" fill="#fff"/>
    </g>
  </g>
  <g id="Groupe_4" data-name="Groupe 4">
    <g id="Groupe_3" data-name="Groupe 3">
      <path id="Tracé_2" data-name="Tracé 2" d="M326.982,391.374a7.933,7.933,0,0,0-10.527-3.887A143.5,143.5,0,0,1,256,400.691c-79.782,0-144.69-64.908-144.69-144.69a144.125,144.125,0,0,1,54.064-112.786,7.935,7.935,0,0,0-9.949-12.365A159.923,159.923,0,0,0,95.44,256c0,88.533,72.027,160.56,160.56,160.56a159.24,159.24,0,0,0,67.094-14.66A7.936,7.936,0,0,0,326.982,391.374Z" fill="#fff"/>
    </g>
  </g>
  <g id="Groupe_6" data-name="Groupe 6">
    <g id="Groupe_5" data-name="Groupe 5">
      <path id="Tracé_3" data-name="Tracé 3" d="M256,0a7.935,7.935,0,0,0-7.935,7.935V63.106a7.935,7.935,0,1,0,15.87,0V7.935A7.935,7.935,0,0,0,256,0Z" fill="#fff"/>
    </g>
  </g>
  <g id="Groupe_8" data-name="Groupe 8">
    <g id="Groupe_7" data-name="Groupe 7">
      <path id="Tracé_4" data-name="Tracé 4" d="M63.106,248.064H7.935a7.936,7.936,0,0,0,0,15.871H63.106a7.936,7.936,0,0,0,0-15.871Z" fill="#fff"/>
    </g>
  </g>
  <g id="Groupe_10" data-name="Groupe 10">
    <g id="Groupe_9" data-name="Groupe 9">
      <path id="Tracé_5" data-name="Tracé 5" d="M125.214,113.993,86.2,74.981A7.935,7.935,0,0,0,74.981,86.2l39.012,39.012a7.934,7.934,0,1,0,11.221-11.221Z" fill="#fff"/>
    </g>
  </g>
  <g id="Groupe_12" data-name="Groupe 12">
    <g id="Groupe_11" data-name="Groupe 11">
      <path id="Tracé_6" data-name="Tracé 6" d="M188.115,75.271,166.609,24.464a7.935,7.935,0,0,0-14.615,6.187L173.5,81.458a7.935,7.935,0,1,0,14.615-6.187Z" fill="#fff"/>
    </g>
  </g>
  <g id="Groupe_14" data-name="Groupe 14">
    <g id="Groupe_13" data-name="Groupe 13">
      <path id="Tracé_7" data-name="Tracé 7" d="M82.122,172.109,31.489,150.2a7.935,7.935,0,1,0-6.3,14.564L75.82,186.673a7.935,7.935,0,1,0,6.3-14.564Z" fill="#fff"/>
    </g>
  </g>
  <g id="Groupe_16" data-name="Groupe 16">
    <g id="Groupe_15" data-name="Groupe 15">
      <path id="Tracé_8" data-name="Tracé 8" d="M504.065,248.064H448.894a7.935,7.935,0,1,0,0,15.87h55.171a7.935,7.935,0,0,0,0-15.87Z" fill="#fff"/>
    </g>
  </g>
  <g id="Groupe_18" data-name="Groupe 18">
    <g id="Groupe_17" data-name="Groupe 17">
      <path id="Tracé_9" data-name="Tracé 9" d="M437.02,74.981a7.935,7.935,0,0,0-11.222,0l-39.012,39.012a7.935,7.935,0,0,0,11.223,11.221L437.021,86.2A7.935,7.935,0,0,0,437.02,74.981Z" fill="#fff"/>
    </g>
  </g>
  <g id="Groupe_20" data-name="Groupe 20">
    <g id="Groupe_19" data-name="Groupe 19">
      <path id="Tracé_10" data-name="Tracé 10" d="M355.792,20.251a7.935,7.935,0,0,0-10.4,4.214L323.886,75.272A7.934,7.934,0,1,0,338.5,81.459l21.506-50.807A7.934,7.934,0,0,0,355.792,20.251Z" fill="#fff"/>
    </g>
  </g>
  <g id="Groupe_22" data-name="Groupe 22">
    <g id="Groupe_21" data-name="Groupe 21">
      <path id="Tracé_11" data-name="Tracé 11" d="M490.945,154.327a7.936,7.936,0,0,0-10.434-4.13l-50.633,21.911a7.935,7.935,0,1,0,6.3,14.564l50.633-21.911A7.934,7.934,0,0,0,490.945,154.327Z" fill="#fff"/>
    </g>
  </g>
  <g id="Groupe_24" data-name="Groupe 24">
    <g id="Groupe_23" data-name="Groupe 23">
      <path id="Tracé_12" data-name="Tracé 12" d="M256,440.959a7.935,7.935,0,0,0-7.935,7.935v55.171a7.935,7.935,0,1,0,15.87,0V448.894A7.935,7.935,0,0,0,256,440.959Z" fill="#fff"/>
    </g>
  </g>
  <g id="Groupe_26" data-name="Groupe 26">
    <g id="Groupe_25" data-name="Groupe 25">
      <path id="Tracé_13" data-name="Tracé 13" d="M125.214,386.786a7.934,7.934,0,0,0-11.221,0L74.981,425.8A7.935,7.935,0,0,0,86.2,437.019l39.012-39.012A7.935,7.935,0,0,0,125.214,386.786Z" fill="#fff"/>
    </g>
  </g>
  <g id="Groupe_28" data-name="Groupe 28">
    <g id="Groupe_27" data-name="Groupe 27">
      <path id="Tracé_14" data-name="Tracé 14" d="M183.9,426.328a7.935,7.935,0,0,0-10.4,4.214L152,481.349a7.935,7.935,0,1,0,14.614,6.187l21.506-50.807A7.936,7.936,0,0,0,183.9,426.328Z" fill="#fff"/>
    </g>
  </g>
  <g id="Groupe_30" data-name="Groupe 30">
    <g id="Groupe_29" data-name="Groupe 29">
      <path id="Tracé_15" data-name="Tracé 15" d="M86.254,329.457a7.935,7.935,0,0,0-10.434-4.131L25.187,347.238a7.935,7.935,0,1,0,6.3,14.564l50.633-21.911A7.935,7.935,0,0,0,86.254,329.457Z" fill="#fff"/>
    </g>
  </g>
  <g id="Groupe_32" data-name="Groupe 32">
    <g id="Groupe_31" data-name="Groupe 31">
      <path id="Tracé_16" data-name="Tracé 16" d="M437.02,425.8l-39.012-39.012a7.935,7.935,0,1,0-11.222,11.221L425.8,437.019A7.935,7.935,0,1,0,437.02,425.8Z" fill="#fff"/>
    </g>
  </g>
  <g id="Groupe_34" data-name="Groupe 34">
    <g id="Groupe_33" data-name="Groupe 33">
      <path id="Tracé_17" data-name="Tracé 17" d="M360.005,481.347,338.5,430.54a7.934,7.934,0,1,0-14.613,6.187l21.506,50.807a7.934,7.934,0,1,0,14.613-6.187Z" fill="#fff"/>
    </g>
  </g>
  <g id="Groupe_36" data-name="Groupe 36">
    <g id="Groupe_35" data-name="Groupe 35">
      <path id="Tracé_18" data-name="Tracé 18" d="M486.814,347.238l-50.633-21.911a7.936,7.936,0,0,0-6.3,14.566L480.511,361.8a7.936,7.936,0,0,0,6.3-14.566Z" fill="#fff"/>
    </g>
  </g>
</svg>
